<svg aria-hidden="true" style="position: absolute; width: 0; height: 0; overflow: hidden;" version="1.1" xmlns="http://www.w3.org/2000/svg" xmlns:xlink="http://www.w3.org/1999/xlink">
  <defs>
    <symbol id="book" viewBox="0 0 32 32">
      <path d="M6 0v32h24v-32h-24zM18 8.010c2.203 0 3.99 1.786 3.99 3.99s-1.786 3.99-3.99 3.99-3.99-1.786-3.99-3.99 1.786-3.99 3.99-3.99v0zM24 24h-12v-2c0-2.209 1.791-4 4-4v0h4c2.209 0 4 1.791 4 4v2z"></path>
      <path d="M2 2h3v6h-3v-6z"></path>
      <path d="M2 10h3v6h-3v-6z"></path>
      <path d="M2 18h3v6h-3v-6z"></path>
      <path d="M2 26h3v6h-3v-6z"></path>
    </symbol>
    <symbol id="mobile" viewBox="0 0 32 32">
      <path d="M23 0h-14c-1.65 0-3 1.35-3 3v26c0 1.65 1.35 3 3 3h14c1.65 0 3-1.35 3-3v-26c0-1.65-1.35-3-3-3zM12 1.5h8v1h-8v-1zM16 30c-1.105 0-2-0.895-2-2s0.895-2 2-2 2 0.895 2 2-0.895 2-2 2zM24 24h-16v-20h16v20z"></path>
    </symbol>
    <symbol id="drag" viewBox="0 0 24 24">
      <path d="M15 15.984q0.797 0 1.406 0.609t0.609 1.406-0.609 1.406-1.406 0.609-1.406-0.609-0.609-1.406 0.609-1.406 1.406-0.609zM15 9.984q0.797 0 1.406 0.609t0.609 1.406-0.609 1.406-1.406 0.609-1.406-0.609-0.609-1.406 0.609-1.406 1.406-0.609zM15 8.016q-0.797 0-1.406-0.609t-0.609-1.406 0.609-1.406 1.406-0.609 1.406 0.609 0.609 1.406-0.609 1.406-1.406 0.609zM9 3.984q0.797 0 1.406 0.609t0.609 1.406-0.609 1.406-1.406 0.609-1.406-0.609-0.609-1.406 0.609-1.406 1.406-0.609zM9 9.984q0.797 0 1.406 0.609t0.609 1.406-0.609 1.406-1.406 0.609-1.406-0.609-0.609-1.406 0.609-1.406 1.406-0.609zM11.016 18q0 0.797-0.609 1.406t-1.406 0.609-1.406-0.609-0.609-1.406 0.609-1.406 1.406-0.609 1.406 0.609 0.609 1.406z"></path>
    </symbol>
    <symbol id="uk" viewBox="0 0 32 32">
      <path fill="#ffda44" style="fill: var(--color1, #ffda44)" d="M32 16c0 8.837-7.163 16-16 16s-16-7.163-16-16c0-8.837 7.163-16 16-16s16 7.163 16 16z"></path>
      <path fill="#338af3" style="fill: var(--color2, #338af3)" d="M0 16c0-8.836 7.163-16 16-16s16 7.163 16 16z"></path>
    </symbol>
    <symbol id="ru" viewBox="0 0 32 32">
      <path fill="#f0f0f0" style="fill: var(--color3, #f0f0f0)" d="M32 16c0 8.837-7.163 16-16 16s-16-7.163-16-16c0-8.837 7.163-16 16-16s16 7.163 16 16z"></path>
      <path fill="#0052b4" style="fill: var(--color4, #0052b4)" d="M31.005 21.565c0.643-1.733 0.995-3.608 0.995-5.565s-0.352-3.832-0.995-5.565h-30.010c-0.643 1.733-0.995 3.608-0.995 5.565s0.352 3.832 0.995 5.565l15.005 1.391 15.005-1.391z"></path>
      <path fill="#d80027" style="fill: var(--color5, #d80027)" d="M16 32c6.879 0 12.744-4.342 15.005-10.435h-30.010c2.261 6.093 8.125 10.435 15.005 10.435z"></path>
    </symbol>
    <symbol id="en" viewBox="0 0 32 32">
      <path fill="#f0f0f0" style="fill: var(--color1, #f0f0f0)" d="M32 16c0 8.837-7.163 16-16 16s-16-7.163-16-16c0-8.837 7.163-16 16-16s16 7.163 16 16z"></path>
      <path fill="#0052b4" style="fill: var(--color2, #0052b4)" d="M3.308 6.259c-1.257 1.635-2.204 3.52-2.756 5.567h8.324l-5.567-5.567z"></path>
      <path fill="#0052b4" style="fill: var(--color2, #0052b4)" d="M31.449 11.826c-0.552-2.047-1.5-3.932-2.756-5.567l-5.567 5.567h8.323z"></path>
      <path fill="#0052b4" style="fill: var(--color2, #0052b4)" d="M0.551 20.174c0.552 2.047 1.5 3.932 2.756 5.567l5.567-5.567h-8.323z"></path>
      <path fill="#0052b4" style="fill: var(--color2, #0052b4)" d="M25.741 3.308c-1.635-1.257-3.52-2.204-5.567-2.756v8.324l5.567-5.567z"></path>
      <path fill="#0052b4" style="fill: var(--color2, #0052b4)" d="M6.259 28.692c1.635 1.257 3.52 2.204 5.567 2.756v-8.323l-5.567 5.567z"></path>
      <path fill="#0052b4" style="fill: var(--color2, #0052b4)" d="M11.826 0.551c-2.047 0.552-3.932 1.5-5.567 2.756l5.567 5.567v-8.323z"></path>
      <path fill="#0052b4" style="fill: var(--color2, #0052b4)" d="M20.174 31.449c2.047-0.552 3.932-1.5 5.567-2.756l-5.567-5.567v8.323z"></path>
      <path fill="#0052b4" style="fill: var(--color2, #0052b4)" d="M23.125 20.174l5.567 5.567c1.257-1.635 2.204-3.52 2.756-5.567h-8.323z"></path>
      <path fill="#d80027" style="fill: var(--color3, #d80027)" d="M31.865 13.913h-13.778v-13.778c-0.683-0.089-1.38-0.135-2.087-0.135s-1.404 0.046-2.087 0.135v13.778h-13.778c-0.089 0.683-0.135 1.38-0.135 2.087s0.046 1.404 0.135 2.087h13.778v13.778c0.683 0.089 1.38 0.135 2.087 0.135s1.404-0.046 2.087-0.135v-13.778h13.778c0.089-0.683 0.135-1.38 0.135-2.087s-0.047-1.404-0.135-2.087z"></path>
      <path fill="#d80027" style="fill: var(--color3, #d80027)" d="M20.174 20.174v0l7.14 7.14c0.328-0.328 0.642-0.671 0.941-1.027l-6.113-6.113-1.968 0z"></path>
      <path fill="#d80027" style="fill: var(--color3, #d80027)" d="M11.826 20.174h-0l-7.14 7.14c0.328 0.328 0.671 0.642 1.027 0.941l6.113-6.113v-1.967z"></path>
      <path fill="#d80027" style="fill: var(--color3, #d80027)" d="M11.826 11.826v-0l-7.14-7.14c-0.328 0.328-0.642 0.671-0.941 1.027l6.113 6.113h1.968z"></path>
      <path fill="#d80027" style="fill: var(--color3, #d80027)" d="M20.174 11.826v0l7.14-7.14c-0.328-0.328-0.671-0.642-1.027-0.94l-6.113 6.113v1.968z"></path>
    </symbol>
    <symbol id="light" viewBox="0 0 28 28">
      <path d="M23 14c0-4.969-4.031-9-9-9s-9 4.031-9 9 4.031 9 9 9 9-4.031 9-9zM27.312 18.328c-0.047 0.156-0.172 0.266-0.313 0.313l-4.562 1.5v4.781c0 0.156-0.078 0.313-0.203 0.406-0.141 0.094-0.297 0.125-0.453 0.063l-4.562-1.469-2.812 3.875c-0.094 0.125-0.25 0.203-0.406 0.203s-0.313-0.078-0.406-0.203l-2.812-3.875-4.562 1.469c-0.156 0.063-0.313 0.031-0.453-0.063-0.125-0.094-0.203-0.25-0.203-0.406v-4.781l-4.562-1.5c-0.141-0.047-0.266-0.156-0.313-0.313s-0.031-0.328 0.063-0.453l2.812-3.875-2.812-3.875c-0.094-0.141-0.109-0.297-0.063-0.453s0.172-0.266 0.313-0.313l4.562-1.5v-4.781c0-0.156 0.078-0.313 0.203-0.406 0.141-0.094 0.297-0.125 0.453-0.063l4.562 1.469 2.812-3.875c0.187-0.25 0.625-0.25 0.812 0l2.812 3.875 4.562-1.469c0.156-0.063 0.313-0.031 0.453 0.063 0.125 0.094 0.203 0.25 0.203 0.406v4.781l4.562 1.5c0.141 0.047 0.266 0.156 0.313 0.313s0.031 0.313-0.063 0.453l-2.812 3.875 2.812 3.875c0.094 0.125 0.109 0.297 0.063 0.453z"></path>
    </symbol>
    <symbol id="dark" viewBox="0 0 23 28">
      <path d="M19.719 20.359c-0.562 0.094-1.141 0.141-1.719 0.141-5.797 0-10.5-4.703-10.5-10.5 0-1.984 0.578-3.922 1.625-5.578-4.156 1.234-7.125 5.047-7.125 9.578 0 5.516 4.484 10 10 10 3.016 0 5.844-1.375 7.719-3.641zM22.891 19.031c-1.953 4.234-6.234 6.969-10.891 6.969-6.609 0-12-5.391-12-12 0-6.484 5.078-11.75 11.547-11.984 0.438-0.016 0.797 0.234 0.953 0.609 0.172 0.391 0.063 0.844-0.234 1.125-1.781 1.625-2.766 3.844-2.766 6.25 0 4.688 3.813 8.5 8.5 8.5 1.234 0 2.422-0.266 3.563-0.797 0.391-0.172 0.828-0.094 1.125 0.203s0.375 0.75 0.203 1.125z"></path>
    </symbol>
    <symbol id="user" viewBox="0 0 28 28">
      <path d="M14 0c7.734 0 14 6.266 14 14 0 7.688-6.234 14-14 14-7.75 0-14-6.297-14-14 0-7.734 6.266-14 14-14zM23.672 21.109c1.453-2 2.328-4.453 2.328-7.109 0-6.609-5.391-12-12-12s-12 5.391-12 12c0 2.656 0.875 5.109 2.328 7.109 0.562-2.797 1.922-5.109 4.781-5.109 1.266 1.234 2.984 2 4.891 2s3.625-0.766 4.891-2c2.859 0 4.219 2.312 4.781 5.109zM20 11c0-3.313-2.688-6-6-6s-6 2.688-6 6 2.688 6 6 6 6-2.688 6-6z"></path>
    </symbol>
    <symbol id="settings" viewBox="0 0 24 24">
      <path d="M14.156 13.688l1.406-2.391q0.141-0.281-0.094-0.469l-1.453-1.125q0.047-0.375 0.047-0.703t-0.047-0.703l1.453-1.125q0.234-0.234 0.094-0.469l-1.406-2.438q-0.141-0.234-0.422-0.141l-1.734 0.703q-0.563-0.422-1.172-0.703l-0.281-1.828q-0.047-0.281-0.328-0.281h-2.813q-0.281 0-0.328 0.281l-0.281 1.875q-0.656 0.234-1.172 0.656l-1.734-0.703q-0.281-0.094-0.422 0.188l-1.406 2.391q-0.188 0.281 0.047 0.469l1.5 1.125q-0.047 0.375-0.047 0.703t0.047 0.703l-1.5 1.125q-0.234 0.234-0.047 0.469l1.406 2.438q0.141 0.234 0.422 0.141l1.734-0.703q0.563 0.422 1.172 0.703l0.281 1.828q0.047 0.281 0.328 0.281h2.813q0.281 0 0.328-0.281l0.281-1.875q0.656-0.234 1.172-0.656l1.734 0.703q0.281 0.094 0.422-0.188zM8.813 11.016q-0.844 0-1.43-0.586t-0.586-1.43 0.586-1.43 1.43-0.586 1.43 0.586 0.586 1.43-0.586 1.43-1.43 0.586zM21.938 18.656l-0.984-0.703q0-0.141 0.023-0.234t0.023-0.234q0-0.234-0.047-0.422l0.938-0.75q0.188-0.141 0.047-0.281l-0.891-1.547q-0.047-0.188-0.281-0.094l-1.078 0.422q-0.375-0.281-0.797-0.422l-0.141-1.172q-0.047-0.234-0.234-0.234h-1.781q-0.188 0-0.234 0.188l-0.141 1.219q-0.234 0.047-0.422 0.164t-0.328 0.258l-1.125-0.469q-0.188-0.047-0.281 0.094l-0.891 1.594q-0.094 0.141 0.047 0.281l0.938 0.75q-0.047 0.188-0.047 0.422t0.047 0.422l-0.938 0.75q-0.141 0.141-0.047 0.281l0.891 1.547q0.094 0.188 0.281 0.094l1.125-0.422q0.328 0.281 0.75 0.422l0.141 1.172q0.047 0.188 0.234 0.188h1.781q0.234 0 0.234-0.188l0.188-1.172 0.375-0.188t0.375-0.234l1.125 0.422q0.141 0.094 0.234-0.094l0.938-1.547q0.094-0.141-0.047-0.281zM17.625 18.844q-0.563 0-0.961-0.398t-0.398-0.961 0.398-0.961 0.961-0.398 0.961 0.398 0.398 0.961-0.398 0.961-0.961 0.398z"></path>
    </symbol>
    <symbol id="close" viewBox="0 0 24 24">
      <path d="M18.984 6.422l-5.578 5.578 5.578 5.578-1.406 1.406-5.578-5.578-5.578 5.578-1.406-1.406 5.578-5.578-5.578-5.578 1.406-1.406 5.578 5.578 5.578-5.578z"></path>
    </symbol>
    <symbol id="eye" viewBox="0 0 28 28">
      <path d="M26 15c-1.484-2.297-3.516-4.266-5.953-5.516 0.625 1.062 0.953 2.281 0.953 3.516 0 3.859-3.141 7-7 7s-7-3.141-7-7c0-1.234 0.328-2.453 0.953-3.516-2.438 1.25-4.469 3.219-5.953 5.516 2.672 4.125 6.984 7 12 7s9.328-2.875 12-7zM14.75 9c0-0.406-0.344-0.75-0.75-0.75-2.609 0-4.75 2.141-4.75 4.75 0 0.406 0.344 0.75 0.75 0.75s0.75-0.344 0.75-0.75c0-1.781 1.469-3.25 3.25-3.25 0.406 0 0.75-0.344 0.75-0.75zM28 15c0 0.391-0.125 0.75-0.313 1.078-2.875 4.734-8.141 7.922-13.687 7.922s-10.813-3.203-13.687-7.922c-0.187-0.328-0.313-0.688-0.313-1.078s0.125-0.75 0.313-1.078c2.875-4.719 8.141-7.922 13.687-7.922s10.813 3.203 13.687 7.922c0.187 0.328 0.313 0.688 0.313 1.078z"></path>
    </symbol>
    <symbol id="eye-slash" viewBox="0 0 28 28">
      <path d="M8.672 20.859l1.219-2.203c-1.813-1.313-2.891-3.422-2.891-5.656 0-1.234 0.328-2.453 0.953-3.516-2.438 1.25-4.469 3.219-5.953 5.516 1.625 2.516 3.922 4.625 6.672 5.859zM14.75 9c0-0.406-0.344-0.75-0.75-0.75-2.609 0-4.75 2.141-4.75 4.75 0 0.406 0.344 0.75 0.75 0.75s0.75-0.344 0.75-0.75c0-1.797 1.469-3.25 3.25-3.25 0.406 0 0.75-0.344 0.75-0.75zM20.422 6.016c0 0.031 0 0.109-0.016 0.141-3.297 5.891-6.563 11.813-9.859 17.703l-0.766 1.391c-0.094 0.156-0.266 0.25-0.438 0.25-0.281 0-1.766-0.906-2.094-1.094-0.156-0.094-0.25-0.25-0.25-0.438 0-0.25 0.531-1.094 0.688-1.359-3.031-1.375-5.578-3.719-7.375-6.531-0.203-0.313-0.313-0.688-0.313-1.078 0-0.375 0.109-0.766 0.313-1.078 3.094-4.75 7.922-7.922 13.687-7.922 0.938 0 1.891 0.094 2.812 0.266l0.844-1.516c0.094-0.156 0.25-0.25 0.438-0.25 0.281 0 1.75 0.906 2.078 1.094 0.156 0.094 0.25 0.25 0.25 0.422zM21 13c0 2.906-1.797 5.5-4.5 6.531l4.375-7.844c0.078 0.438 0.125 0.875 0.125 1.313zM28 15c0 0.406-0.109 0.734-0.313 1.078-0.484 0.797-1.094 1.563-1.703 2.266-3.063 3.516-7.281 5.656-11.984 5.656l1.156-2.063c4.547-0.391 8.406-3.156 10.844-6.937-1.156-1.797-2.641-3.375-4.406-4.594l0.984-1.75c1.937 1.297 3.891 3.25 5.109 5.266 0.203 0.344 0.313 0.672 0.313 1.078z"></path>
    </symbol>
  </defs>
</svg>
